<?xml version="1.0" encoding="UTF-8" standalone="no"?>
<!-- Created with Inkscape (http://www.inkscape.org/) -->

<svg
   xmlns:dc="http://purl.org/dc/elements/1.1/"
   xmlns:cc="http://creativecommons.org/ns#"
   xmlns:rdf="http://www.w3.org/1999/02/22-rdf-syntax-ns#"
   xmlns:svg="http://www.w3.org/2000/svg"
   xmlns="http://www.w3.org/2000/svg"
   xmlns:sodipodi="http://sodipodi.sourceforge.net/DTD/sodipodi-0.dtd"
   xmlns:inkscape="http://www.inkscape.org/namespaces/inkscape"
   version="1.1"
   id="svg4539"
   width="1028"
   height="1024"
   viewBox="0 0 1028 1024"
   sodipodi:docname="clock.svg"
   inkscape:version="0.92.1 r15371">
  <metadata
     id="metadata4545">
    <rdf:RDF>
      <cc:Work
         rdf:about="">
        <dc:format>image/svg+xml</dc:format>
        <dc:type
           rdf:resource="http://purl.org/dc/dcmitype/StillImage" />
        <dc:title></dc:title>
      </cc:Work>
    </rdf:RDF>
  </metadata>
  <defs
     id="defs4543" />
  <sodipodi:namedview
     pagecolor="#ffffff"
     bordercolor="#666666"
     borderopacity="1"
     objecttolerance="10"
     gridtolerance="10"
     guidetolerance="10"
     inkscape:pageopacity="0"
     inkscape:pageshadow="2"
     inkscape:window-width="1366"
     inkscape:window-height="721"
     id="namedview4541"
     showgrid="false"
     inkscape:zoom="0.52441406"
     inkscape:cx="521.62756"
     inkscape:cy="458.71975"
     inkscape:window-x="0"
     inkscape:window-y="26"
     inkscape:window-maximized="1"
     inkscape:current-layer="svg4539" />
  <path
     style="opacity:0.24299999;fill:#ffffff;stroke:none"
     d="m 421.27591,1020.8133 c -0.4545,-1.4381 -18.58773,-108.87972 -18.56031,-109.97202 0.01,-0.3972 -2.56938,-1.4451 -5.73188,-2.3289 -19.58809,-5.4736 -44.979,-15.385 -68.03504,-26.5576 -8.95677,-4.3403 -16.49193,-7.8915 -16.7448,-7.8915 -0.25287,0 -21.9496,15.2883 -48.21496,33.9739 l -47.7552,33.9739 -66.40149,-66.3763 -66.40148,-66.37632 34.17,-48.00833 34.17,-48.00833 -8.45022,-16.83925 c -9.99372,-19.91506 -17.76859,-38.75105 -23.66775,-57.33924 -2.3564,-7.425 -4.31657,-13.5769 -4.35594,-13.67089 -0.0394,-0.094 -24.59466,-4.25385 -54.56734,-9.24412 -29.97268,-4.99028 -55.96057,-9.3217 -57.75087,-9.62538 l -3.25509,-0.55215 0.25509,-94.17735 0.25509,-94.17734 57.40275,-8.52639 c 52.23129,-7.75823 57.4728,-8.70656 58.18025,-10.52638 0.42763,-1.1 2.42348,-7.4 4.43524,-14 5.13576,-16.84903 13.37212,-37.20871 22.85666,-56.5 4.46171,-9.075 8.06658,-16.97862 8.01083,-17.56361 -0.0558,-0.58499 -15.2609,-21.89837 -33.7892,-47.36308 C 98.80196,237.67192 83.77548,216.54384 83.93808,216.18535 84.25947,215.47676 211.64222,90.057335 215.93517,86.222695 l 2.62036,-2.34061 33.83909,23.890865 c 18.61151,13.13998 39.69254,27.99778 46.84674,33.01735 l 13.00764,9.12649 19.99236,-9.83989 c 20.67498,-10.17586 42.37842,-18.96665 57.97832,-23.48362 4.94228,-1.43103 9.28449,-2.92321 9.64935,-3.31592 0.36487,-0.39272 4.79076,-25.689045 9.83532,-56.214045 5.04457,-30.525 9.39519,-56.2875 9.66804,-57.25 0.46796,-1.65072 5.82384,-1.75 94.40967,-1.75 h 93.91356 l 0.52064,2.25 c 0.28635,1.2375 4.58608,26.325 9.55496,55.75 4.96887,29.425 9.15156,53.900215 9.29486,54.389365 0.14331,0.48916 7.21465,3.23028 15.71412,6.09139 19.8745,6.6902 36.5669,13.61096 56.4963,23.42372 l 15.9572,7.85697 25,-17.20942 c 13.75,-9.46517 35.2631,-24.29047 47.8069,-32.945085 12.5438,-8.65462 23.1667,-15.5942 23.6064,-15.42131 0.9993,0.39298 131.47729,132.802615 131.88239,133.834825 0.1626,0.41436 -14.712,21.39177 -33.0546,46.61647 -18.3427,25.22469 -33.6598,46.37703 -34.038,47.0052 -0.3783,0.62817 1.4027,4.90317 3.9577,9.5 10.0866,18.14712 21.4345,45.20225 27.8177,66.32177 1.9888,6.58014 3.8545,12.20514 4.1461,12.5 0.2916,0.29485 26.2579,4.82733 57.7028,10.07216 l 57.17261,9.53605 0.2551,94.16768 0.2551,94.16767 -3.2551,0.53207 c -1.7903,0.29263 -15.4051,2.35162 -30.25511,4.57552 -43.6069,6.53049 -79.9647,12.11439 -80.1294,12.30644 -0.084,0.0982 -1.1501,3.77851 -2.3686,8.17851 -4.9975,18.04603 -18.2585,50.0076 -29.1116,70.16448 l -4.9344,9.16448 33.6109,47.23528 c 18.4859,25.9794 33.7995,47.73039 34.03,48.33552 0.2306,0.60513 -29.3969,30.88142 -65.8388,67.28061 l -66.25809,66.1804 -15,-10.7633 c -25.2634,-18.128 -76.871,-54.7232 -79.1794,-56.1466 -1.9593,-1.2081 -3.0707,-0.8789 -11,3.2574 -18.5568,9.6802 -47.6033,21.8111 -67.3389,28.1232 l -11.51835,3.6839 -9.46461,56.9923 -9.46461,56.99232 h -94.29844 c -74.56139,0 -94.38112,-0.2616 -94.69348,-1.25 z M 531.87777,708.03745 c 72.33048,-7.16506 135.19213,-52.75976 162.77053,-118.06051 10.6508,-25.21917 15.9772,-50.78528 16.0542,-77.05768 0.09,-30.6415 -6.3133,-58.37202 -19.9508,-86.40294 -28.2024,-57.96817 -80.43911,-97.26896 -145.01798,-109.10579 -7.21232,-1.32196 -14.9182,-1.74128 -32,-1.74128 -17.0818,0 -24.78768,0.41932 -32,1.74128 -55.30699,10.13736 -101.70387,40.47366 -132.52831,86.65278 -7.90136,11.8373 -18.25779,33.17604 -22.81073,47 -22.12988,67.19241 -5.52184,142.98123 42.65249,194.63956 41.78308,44.80487 103.04473,68.25697 162.8306,62.33458 z"
     id="path4549"
     inkscape:connector-curvature="0" />
  <path
     style="opacity:0.5988024;fill:none;stroke:#ffffff;stroke-opacity:1;stroke-width:51.64724409;stroke-miterlimit:4;stroke-dasharray:none"
     d="m 421.27594,1020.8133 c -0.4545,-1.4381 -18.58773,-108.87973 -18.56031,-109.97203 0.01,-0.3972 -2.56938,-1.4451 -5.73188,-2.3289 -19.58809,-5.47361 -44.979,-15.38501 -68.03504,-26.5576 -8.95677,-4.34031 -16.49193,-7.89147 -16.7448,-7.89147 -0.25287,0 -21.9496,15.28826 -48.21496,33.97387 l -47.7552,33.9739 -66.40149,-66.37629 -66.401485,-66.37633 34.170005,-48.00833 34.17,-48.00833 -8.45022,-16.83925 c -9.99372,-19.91506 -17.76859,-38.75105 -23.66775,-57.33924 -2.3564,-7.425 -4.31657,-13.5769 -4.35594,-13.67089 -0.0394,-0.094 -24.594665,-4.25385 -54.567345,-9.24412 -29.97268,-4.99028 -55.96057,-9.3217 -57.75087,-9.62538 l -3.25509,-0.55215 0.25509,-94.17735 0.25509,-94.17734 57.40275,-8.52639 c 52.231295,-7.75823 57.472805,-8.70656 58.180255,-10.52638 0.42763,-1.1 2.42348,-7.4 4.43524,-14 5.13576,-16.84903 13.37212,-37.20871 22.85666,-56.5 4.46171,-9.075 8.06658,-16.97862 8.01083,-17.56361 -0.0558,-0.58499 -15.2609,-21.89837 -33.7892,-47.36308 C 98.801995,237.67191 83.775505,216.54383 83.938105,216.18534 84.259495,215.47675 211.64225,90.05732 215.9352,86.22268 l 2.62036,-2.34061 33.83909,23.89086 c 18.61151,13.13998 39.69254,27.99778 46.84674,33.01735 l 13.00764,9.12649 19.99236,-9.83989 c 20.67498,-10.17586 42.37842,-18.96665 57.97832,-23.48361 4.94228,-1.43104 9.28449,-2.92321 9.64935,-3.31593 0.36487,-0.39272 4.79076,-25.68904 9.83532,-56.21404 5.04457,-30.525 9.39519,-56.2875 9.66804,-57.25 0.46796,-1.65072 5.82384,-1.75 94.40967,-1.75 h 93.91356 l 0.52064,2.25 c 0.28635,1.2375 4.58608,26.325 9.55496,55.75 4.96887,29.425 9.15156,53.90022 9.29486,54.38937 0.14331,0.48916 7.21465,3.23028 15.71412,6.09138 19.8745,6.6902 36.5669,13.61096 56.4963,23.42372 l 15.9572,7.85697 25,-17.20942 c 13.75,-9.46517 35.2631,-24.29046 47.8069,-32.94508 12.5438,-8.65462 23.1667,-15.5942 23.6064,-15.42131 0.9993,0.39298 131.4773,132.80262 131.8824,133.83483 0.1626,0.41436 -14.712,21.39177 -33.0546,46.61647 -18.3427,25.22469 -33.6598,46.37703 -34.038,47.0052 -0.3783,0.62817 1.4027,4.90317 3.9577,9.5 10.0866,18.14712 21.4345,45.20225 27.8177,66.32177 1.9888,6.58014 3.8545,12.20514 4.1461,12.5 0.2916,0.29485 26.2579,4.82733 57.7028,10.07216 l 57.17257,9.53605 0.2551,94.16768 0.2551,94.16767 -3.2551,0.53207 c -1.7903,0.29263 -15.4051,2.35162 -30.25512,4.57552 -43.60685,6.53049 -79.96465,12.11439 -80.12935,12.30644 -0.084,0.0982 -1.1501,3.77851 -2.3686,8.17851 -4.9975,18.04603 -18.2585,50.0076 -29.1116,70.16448 l -4.9344,9.16448 33.6109,47.23528 c 18.4859,25.9794 33.7995,47.73039 34.03,48.33552 0.2306,0.60513 -29.3969,30.88142 -65.8388,67.28063 l -66.2581,66.18038 -15,-10.7633 c -25.2634,-18.128 -76.871,-54.72319 -79.1794,-56.14659 -1.9593,-1.20808 -3.0707,-0.87895 -11,3.25739 -18.5568,9.68017 -47.6033,21.81106 -67.3389,28.12317 l -11.51835,3.68393 -9.46461,56.9923 -9.46461,56.99233 h -94.29844 c -74.56139,0 -94.38112,-0.2616 -94.69348,-1.25 z M 531.8778,708.03744 c 72.33048,-7.16506 135.19213,-52.75976 162.77053,-118.06051 10.6508,-25.21917 15.9772,-50.78528 16.0542,-77.05768 0.09,-30.6415 -6.3133,-58.37202 -19.9508,-86.40294 -28.2024,-57.96817 -80.43911,-97.26896 -145.01798,-109.10579 -7.21232,-1.32196 -14.9182,-1.74128 -32,-1.74128 -17.0818,0 -24.78768,0.41932 -32,1.74128 -55.30699,10.13736 -101.70387,40.47366 -132.52831,86.65278 -7.90136,11.8373 -18.25779,33.17604 -22.81073,47 -22.12988,67.19241 -5.52184,142.98123 42.65249,194.63956 41.78308,44.80487 103.04473,68.25697 162.8306,62.33458 z"
     id="path4549-3"
     inkscape:connector-curvature="0" />
</svg>
